{"title":"Ursula Meier - L'enfant d'en haut (2012) DVDRip XviD","uid":8009102,"size":1571056450,"categoryP":"video","categoryS":"movies","magnet":"?xt=urn:btih:f9d82025bfb9a8a7d1bd9c7cc5b939d2f40a1d44&amp;dn=Ursula+Meier+-+L%27enfant+d%27en+haut+%282012%29+DVDRip+XviD&amp;tr=udp%3A%2F%2Ftracker.openbittorrent.com%3A80&amp;tr=udp%3A%2F%2Fopen.demonii.com%3A1337&amp;tr=udp%3A%2F%2Ftracker.coppersurfer.tk%3A6969&amp;tr=udp%3A%2F%2Fexodus.desync.com%3A6969","seeders":4,"leechers":0,"uploader":"rpessoa","files":3,"time":1357959399,"description":"A drama set at a Swiss ski resort and centered on a boy who supports his sister by stealing from wealthy guests.\n &lt;a href=&quot;\nhttp://www.imdb.com/title/tt2062969/&quot; rel=&quot;nofollow&quot; target=&quot;_NEW&quot;&gt;\nhttp://www.imdb.com/title/tt2062969/&lt;/a&gt;\n\n-----------------------\n\nFormat : AVI \nFormat/Info : Audio Video Interleave \nFile size : 1.46 GiB \nDuration : 1h 33mn \nOverall bit rate : 2 243 Kbps \nWriting application : VirtualDubMod 1.5.10.3 | www.virtualdub-fr.org || (build 2550/release) \nWriting library : VirtualDubMod build 2550/release \n\nVideo \nID : 0 \nFormat : MPEG-4 Visual \nFormat profile : Advanced Simple@L5 \nFormat settings, BVOP : 2 \nFormat settings, QPel : No \nFormat settings, GMC : No warppoints \nFormat settings, Matrix : Default (MPEG) \nCodec ID : XVID \nCodec ID/Hint : XviD \nDuration : 1h 33mn \nBit rate : 1 785 Kbps \nWidth : 720 pixels \nHeight : 384 pixels \nDisplay aspect ratio : 1.85:1 \nFrame rate : 25.000 fps \nColor space : YUV \nChroma subsampling : 4:2:0 \nBit depth : 8 bits \nScan type : Progressive \nCompression mode : Lossy \nBits/(Pixel*Frame) : 0.258 \nStream size : 1.16 GiB (80%) \nWriting library : XviD 1.2.1 (UTC 2008-12-04) \n\nAudio \nID : 1 \nFormat : AC-3 \nFormat/Info : Audio Coding 3 \nMode extension : CM (complete main) \nFormat settings, Endianness : Big \nCodec ID : 2000 \nDuration : 1h 33mn \nBit rate mode : Constant \nBit rate : 448 Kbps \nChannel(s) : 6 channels \nChannel positions : Front: L C R, Side: L R, LFE \nSampling rate : 48.0 KHz \nBit depth : 16 bits \nCompression mode : Lossy \nStream size : 299 MiB (20%) \nAlignment : Split accross interleaves \nInterleave, duration : 40 ms (1.00 video frame) \nInterleave, preload duration : 500 ms \n\n-----------------------\n\nSubs: English and French","torrent":{"xt":"urn:btih:f9d82025bfb9a8a7d1bd9c7cc5b939d2f40a1d44","amp;dn":"Ursula+Meier+-+L%27enfant+d%27en+haut+%282012%29+DVDRip+XviD","amp;tr":["udp%3A%2F%2Ftracker.openbittorrent.com%3A80","udp%3A%2F%2Fopen.demonii.com%3A1337","udp%3A%2F%2Ftracker.coppersurfer.tk%3A6969","udp%3A%2F%2Fexodus.desync.com%3A6969"],"infoHash":"f9d82025bfb9a8a7d1bd9c7cc5b939d2f40a1d44","infoHashBuffer":{"type":"Buffer","data":[249,216,32,37,191,185,168,167,209,189,156,124,197,185,57,210,244,10,29,68]},"announce":[],"urlList":[]}}